<mxfile host="app.diagrams.net" modified="2023-10-25T14:26:51.236Z" agent="Mozilla/5.0 (Windows NT 10.0; Win64; x64) AppleWebKit/537.36 (KHTML, like Gecko) Chrome/118.0.0.0 Safari/537.36" etag="aTSVlwYtWxaq9GN5bR1E" version="22.0.8" type="device">
  <diagram name="Pagina-1" id="g4ey3x4zD8xxsmRvRnBT">
    <mxGraphModel dx="1615" dy="943" grid="1" gridSize="10" guides="1" tooltips="1" connect="1" arrows="1" fold="1" page="1" pageScale="1" pageWidth="827" pageHeight="1169" math="0" shadow="0">
      <root>
        <mxCell id="0" />
        <mxCell id="1" parent="0" />
        <mxCell id="gMi1OoWCpDcQpGZq9_kJ-10" style="edgeStyle=orthogonalEdgeStyle;rounded=0;orthogonalLoop=1;jettySize=auto;html=1;startArrow=classic;startFill=1;" edge="1" parent="1" source="gMi1OoWCpDcQpGZq9_kJ-11" target="gMi1OoWCpDcQpGZq9_kJ-12">
          <mxGeometry relative="1" as="geometry" />
        </mxCell>
        <mxCell id="gMi1OoWCpDcQpGZq9_kJ-11" value="Actor" style="shape=umlActor;verticalLabelPosition=bottom;verticalAlign=top;html=1;outlineConnect=0;" vertex="1" parent="1">
          <mxGeometry x="90" y="305" width="30" height="60" as="geometry" />
        </mxCell>
        <mxCell id="gMi1OoWCpDcQpGZq9_kJ-12" value="Browser" style="sketch=0;pointerEvents=1;shadow=0;dashed=0;html=1;strokeColor=none;fillColor=#434445;aspect=fixed;labelPosition=center;verticalLabelPosition=bottom;verticalAlign=top;align=center;outlineConnect=0;shape=mxgraph.vvd.web_browser;" vertex="1" parent="1">
          <mxGeometry x="200" y="310" width="70.43" height="50" as="geometry" />
        </mxCell>
        <mxCell id="gMi1OoWCpDcQpGZq9_kJ-68" style="edgeStyle=orthogonalEdgeStyle;rounded=1;hachureGap=4;orthogonalLoop=1;jettySize=auto;html=1;fontFamily=Architects Daughter;fontSource=https%3A%2F%2Ffonts.googleapis.com%2Fcss%3Ffamily%3DArchitects%2BDaughter;fontSize=16;" edge="1" parent="1" source="gMi1OoWCpDcQpGZq9_kJ-74" target="gMi1OoWCpDcQpGZq9_kJ-62">
          <mxGeometry relative="1" as="geometry" />
        </mxCell>
        <mxCell id="gMi1OoWCpDcQpGZq9_kJ-44" value="Token authorization&lt;br&gt;checker" style="rounded=1;whiteSpace=wrap;html=1;" vertex="1" parent="1">
          <mxGeometry x="1002.5" y="536" width="120" height="60" as="geometry" />
        </mxCell>
        <mxCell id="gMi1OoWCpDcQpGZq9_kJ-49" value="DISI Unibo" style="ellipse;shape=cloud;whiteSpace=wrap;html=1;" vertex="1" parent="1">
          <mxGeometry x="340" y="295" width="120" height="80" as="geometry" />
        </mxCell>
        <mxCell id="gMi1OoWCpDcQpGZq9_kJ-50" style="edgeStyle=orthogonalEdgeStyle;rounded=0;orthogonalLoop=1;jettySize=auto;html=1;startArrow=classic;startFill=1;" edge="1" parent="1" source="gMi1OoWCpDcQpGZq9_kJ-12" target="gMi1OoWCpDcQpGZq9_kJ-49">
          <mxGeometry relative="1" as="geometry">
            <mxPoint x="310" y="434.20000000000005" as="sourcePoint" />
            <mxPoint x="330" y="375" as="targetPoint" />
          </mxGeometry>
        </mxCell>
        <mxCell id="gMi1OoWCpDcQpGZq9_kJ-61" value="&lt;font face=&quot;Helvetica&quot;&gt;sono in&lt;/font&gt;" style="edgeStyle=orthogonalEdgeStyle;rounded=1;hachureGap=4;orthogonalLoop=1;jettySize=auto;html=1;exitX=0;exitY=0.25;exitDx=0;exitDy=0;fontFamily=Architects Daughter;fontSource=https%3A%2F%2Ffonts.googleapis.com%2Fcss%3Ffamily%3DArchitects%2BDaughter;fontSize=16;" edge="1" parent="1" source="gMi1OoWCpDcQpGZq9_kJ-16" target="gMi1OoWCpDcQpGZq9_kJ-49">
          <mxGeometry relative="1" as="geometry" />
        </mxCell>
        <mxCell id="gMi1OoWCpDcQpGZq9_kJ-62" value="&lt;font face=&quot;Helvetica&quot; style=&quot;font-size: 11px;&quot;&gt;Internet&lt;/font&gt;" style="ellipse;shape=cloud;whiteSpace=wrap;html=1;hachureGap=4;fontFamily=Architects Daughter;fontSource=https%3A%2F%2Ffonts.googleapis.com%2Fcss%3Ffamily%3DArchitects%2BDaughter;fontSize=11;" vertex="1" parent="1">
          <mxGeometry x="1220" y="760" width="120" height="80" as="geometry" />
        </mxCell>
        <mxCell id="gMi1OoWCpDcQpGZq9_kJ-9" value="NodeJS" style="rounded=1;whiteSpace=wrap;html=1;verticalAlign=top;fillColor=#d5e8d4;strokeColor=#82b366;" vertex="1" parent="1">
          <mxGeometry x="560" y="225" width="390" height="475" as="geometry" />
        </mxCell>
        <mxCell id="gMi1OoWCpDcQpGZq9_kJ-19" value="App (ExpressJS)" style="rounded=1;whiteSpace=wrap;html=1;verticalAlign=top;fillColor=#fff2cc;strokeColor=#d6b656;" vertex="1" parent="1">
          <mxGeometry x="577.5" y="295" width="352.5" height="385" as="geometry" />
        </mxCell>
        <mxCell id="gMi1OoWCpDcQpGZq9_kJ-13" value="Middleware" style="rounded=1;whiteSpace=wrap;html=1;" vertex="1" parent="1">
          <mxGeometry x="780.5600000000001" y="526" width="120" height="80" as="geometry" />
        </mxCell>
        <mxCell id="gMi1OoWCpDcQpGZq9_kJ-82" style="edgeStyle=orthogonalEdgeStyle;rounded=0;hachureGap=4;orthogonalLoop=1;jettySize=auto;html=1;exitX=0.5;exitY=1;exitDx=0;exitDy=0;entryX=0.5;entryY=0;entryDx=0;entryDy=0;fontFamily=Architects Daughter;fontSource=https%3A%2F%2Ffonts.googleapis.com%2Fcss%3Ffamily%3DArchitects%2BDaughter;fontSize=16;" edge="1" parent="1" source="gMi1OoWCpDcQpGZq9_kJ-47" target="gMi1OoWCpDcQpGZq9_kJ-13">
          <mxGeometry relative="1" as="geometry" />
        </mxCell>
        <mxCell id="gMi1OoWCpDcQpGZq9_kJ-47" value="Backend" style="rounded=1;whiteSpace=wrap;html=1;" vertex="1" parent="1">
          <mxGeometry x="780.74" y="345" width="119.63" height="85" as="geometry" />
        </mxCell>
        <mxCell id="gMi1OoWCpDcQpGZq9_kJ-30" style="edgeStyle=orthogonalEdgeStyle;rounded=1;orthogonalLoop=1;jettySize=auto;html=1;startArrow=classic;startFill=1;endArrow=classic;endFill=1;" edge="1" parent="1" source="gMi1OoWCpDcQpGZq9_kJ-72" target="gMi1OoWCpDcQpGZq9_kJ-16">
          <mxGeometry relative="1" as="geometry">
            <mxPoint x="257.5" y="505" as="targetPoint" />
          </mxGeometry>
        </mxCell>
        <mxCell id="gMi1OoWCpDcQpGZq9_kJ-45" style="edgeStyle=orthogonalEdgeStyle;rounded=0;orthogonalLoop=1;jettySize=auto;html=1;exitX=0;exitY=0.5;exitDx=0;exitDy=0;startArrow=classic;startFill=1;endArrow=none;endFill=0;" edge="1" parent="1" source="gMi1OoWCpDcQpGZq9_kJ-44" target="gMi1OoWCpDcQpGZq9_kJ-13">
          <mxGeometry relative="1" as="geometry">
            <mxPoint x="551.5" y="535" as="sourcePoint" />
            <mxPoint x="697.5" y="404" as="targetPoint" />
          </mxGeometry>
        </mxCell>
        <mxCell id="gMi1OoWCpDcQpGZq9_kJ-58" value="&lt;font face=&quot;Helvetica&quot;&gt;routing&lt;br&gt;&lt;/font&gt;" style="edgeStyle=orthogonalEdgeStyle;rounded=1;hachureGap=4;orthogonalLoop=1;jettySize=auto;html=1;fontFamily=Architects Daughter;fontSource=https%3A%2F%2Ffonts.googleapis.com%2Fcss%3Ffamily%3DArchitects%2BDaughter;fontSize=16;entryX=0;entryY=0.5;entryDx=0;entryDy=0;exitX=1;exitY=0.5;exitDx=0;exitDy=0;" edge="1" parent="1" source="gMi1OoWCpDcQpGZq9_kJ-19" target="gMi1OoWCpDcQpGZq9_kJ-16">
          <mxGeometry relative="1" as="geometry" />
        </mxCell>
        <mxCell id="gMi1OoWCpDcQpGZq9_kJ-6" style="edgeStyle=orthogonalEdgeStyle;orthogonalLoop=1;jettySize=auto;html=1;exitX=1;exitY=0.5;exitDx=0;exitDy=0;entryX=0;entryY=0.5;entryDx=0;entryDy=0;startArrow=none;startFill=0;rounded=1;" edge="1" parent="1" source="gMi1OoWCpDcQpGZq9_kJ-47" target="gMi1OoWCpDcQpGZq9_kJ-25">
          <mxGeometry relative="1" as="geometry" />
        </mxCell>
        <mxCell id="gMi1OoWCpDcQpGZq9_kJ-67" value="&lt;font face=&quot;Helvetica&quot;&gt;&lt;br&gt;&lt;/font&gt;" style="edgeStyle=orthogonalEdgeStyle;rounded=1;hachureGap=4;orthogonalLoop=1;jettySize=auto;html=1;exitX=0.75;exitY=1;exitDx=0;exitDy=0;entryX=0;entryY=0.5;entryDx=0;entryDy=0;fontFamily=Architects Daughter;fontSource=https%3A%2F%2Ffonts.googleapis.com%2Fcss%3Ffamily%3DArchitects%2BDaughter;fontSize=16;" edge="1" parent="1" source="gMi1OoWCpDcQpGZq9_kJ-9" target="gMi1OoWCpDcQpGZq9_kJ-74">
          <mxGeometry relative="1" as="geometry" />
        </mxCell>
        <mxCell id="gMi1OoWCpDcQpGZq9_kJ-78" style="edgeStyle=orthogonalEdgeStyle;hachureGap=4;orthogonalLoop=1;jettySize=auto;html=1;exitX=1;exitY=0.25;exitDx=0;exitDy=0;entryX=0;entryY=0.5;entryDx=0;entryDy=0;fontFamily=Architects Daughter;fontSource=https%3A%2F%2Ffonts.googleapis.com%2Fcss%3Ffamily%3DArchitects%2BDaughter;fontSize=16;curved=1;" edge="1" parent="1" source="gMi1OoWCpDcQpGZq9_kJ-72" target="gMi1OoWCpDcQpGZq9_kJ-47">
          <mxGeometry relative="1" as="geometry" />
        </mxCell>
        <mxCell id="gMi1OoWCpDcQpGZq9_kJ-74" value="API esterne" style="rounded=1;whiteSpace=wrap;html=1;verticalAlign=top;fillColor=#f5f5f5;fontColor=#333333;strokeColor=default;dashed=1;" vertex="1" parent="1">
          <mxGeometry x="960" y="665" width="162.5" height="270" as="geometry" />
        </mxCell>
        <mxCell id="gMi1OoWCpDcQpGZq9_kJ-39" value="LLM &lt;br&gt;(OpenAI GPT o altro)" style="rounded=1;whiteSpace=wrap;html=1;" vertex="1" parent="1">
          <mxGeometry x="970" y="695" width="140" height="60" as="geometry" />
        </mxCell>
        <mxCell id="gMi1OoWCpDcQpGZq9_kJ-35" value="Meta API" style="rounded=1;whiteSpace=wrap;html=1;container=0;" vertex="1" parent="1">
          <mxGeometry x="980" y="865" width="120" height="60" as="geometry" />
        </mxCell>
        <mxCell id="gMi1OoWCpDcQpGZq9_kJ-36" value="X API" style="rounded=1;whiteSpace=wrap;html=1;container=0;" vertex="1" parent="1">
          <mxGeometry x="980" y="795" width="120" height="60" as="geometry" />
        </mxCell>
        <mxCell id="gMi1OoWCpDcQpGZq9_kJ-80" style="edgeStyle=orthogonalEdgeStyle;rounded=1;hachureGap=4;orthogonalLoop=1;jettySize=auto;html=1;exitX=0.5;exitY=1;exitDx=0;exitDy=0;entryX=0;entryY=0.75;entryDx=0;entryDy=0;fontFamily=Architects Daughter;fontSource=https%3A%2F%2Ffonts.googleapis.com%2Fcss%3Ffamily%3DArchitects%2BDaughter;fontSize=16;" edge="1" parent="1" source="gMi1OoWCpDcQpGZq9_kJ-72" target="gMi1OoWCpDcQpGZq9_kJ-74">
          <mxGeometry relative="1" as="geometry" />
        </mxCell>
        <mxCell id="gMi1OoWCpDcQpGZq9_kJ-25" value="&lt;span style=&quot;color: rgb(0, 0, 0); font-family: Helvetica; font-size: 12px; font-style: normal; font-variant-ligatures: normal; font-variant-caps: normal; font-weight: 400; letter-spacing: normal; orphans: 2; text-align: center; text-indent: 0px; text-transform: none; widows: 2; word-spacing: 0px; -webkit-text-stroke-width: 0px; text-decoration-thickness: initial; text-decoration-style: initial; text-decoration-color: initial; float: none; display: inline !important;&quot;&gt;&lt;br&gt;MySQL&lt;/span&gt;" style="rounded=1;whiteSpace=wrap;html=1;verticalAlign=top;fillColor=#dae8fc;strokeColor=#6c8ebf;labelBackgroundColor=none;labelBorderColor=none;" vertex="1" parent="1">
          <mxGeometry x="1180" y="436" width="400" height="170" as="geometry" />
        </mxCell>
        <mxCell id="gMi1OoWCpDcQpGZq9_kJ-26" value="Users" style="shape=cylinder3;whiteSpace=wrap;html=1;boundedLbl=1;backgroundOutline=1;size=15;" vertex="1" parent="1">
          <mxGeometry x="1200" y="486" width="60" height="80" as="geometry" />
        </mxCell>
        <mxCell id="gMi1OoWCpDcQpGZq9_kJ-27" value="Games" style="shape=cylinder3;whiteSpace=wrap;html=1;boundedLbl=1;backgroundOutline=1;size=15;" vertex="1" parent="1">
          <mxGeometry x="1300" y="486" width="60" height="80" as="geometry" />
        </mxCell>
        <mxCell id="gMi1OoWCpDcQpGZq9_kJ-28" value="&lt;font style=&quot;font-size: 11px;&quot;&gt;Comments&lt;/font&gt;" style="shape=cylinder3;whiteSpace=wrap;html=1;boundedLbl=1;backgroundOutline=1;size=15;" vertex="1" parent="1">
          <mxGeometry x="1400" y="486" width="60" height="80" as="geometry" />
        </mxCell>
        <mxCell id="gMi1OoWCpDcQpGZq9_kJ-33" value="&lt;font style=&quot;font-size: 9px;&quot;&gt;Tournaments&lt;/font&gt;" style="shape=cylinder3;whiteSpace=wrap;html=1;boundedLbl=1;backgroundOutline=1;size=15;" vertex="1" parent="1">
          <mxGeometry x="1490" y="486" width="60" height="80" as="geometry" />
        </mxCell>
        <mxCell id="gMi1OoWCpDcQpGZq9_kJ-83" value="&lt;b style=&quot;font-size: 9px;&quot;&gt;Nota&lt;/b&gt;: non effettivi diversi database. Ci serve solo per capire il macro contenuto" style="text;html=1;align=center;verticalAlign=middle;whiteSpace=wrap;rounded=0;fontSize=9;fontFamily=Helvetica;fillColor=#eeeeee;strokeColor=#36393d;dashed=1;" vertex="1" parent="1">
          <mxGeometry x="1470" y="575" width="120" height="40" as="geometry" />
        </mxCell>
        <mxCell id="gMi1OoWCpDcQpGZq9_kJ-16" value="src/ con pagine web" style="rounded=1;whiteSpace=wrap;html=1;verticalAlign=top;fillColor=#b0e3e6;strokeColor=#0e8088;" vertex="1" parent="1">
          <mxGeometry x="1080" y="80" width="150" height="155" as="geometry" />
        </mxCell>
        <mxCell id="gMi1OoWCpDcQpGZq9_kJ-20" value="React" style="rounded=1;whiteSpace=wrap;html=1;verticalAlign=top;" vertex="1" parent="1">
          <mxGeometry x="1090.7142857142858" y="114.74137931034488" width="128.57142857142856" height="109.56896551724137" as="geometry" />
        </mxCell>
        <mxCell id="gMi1OoWCpDcQpGZq9_kJ-21" value="MUI" style="rounded=1;whiteSpace=wrap;html=1;fillColor=#b1ddf0;strokeColor=#10739e;" vertex="1" parent="1">
          <mxGeometry x="1150" y="160.16999999999996" width="60" height="53.45" as="geometry" />
        </mxCell>
        <mxCell id="gMi1OoWCpDcQpGZq9_kJ-51" style="edgeStyle=orthogonalEdgeStyle;rounded=1;orthogonalLoop=1;jettySize=auto;html=1;startArrow=classic;startFill=1;" edge="1" parent="1" source="gMi1OoWCpDcQpGZq9_kJ-49" target="gMi1OoWCpDcQpGZq9_kJ-19">
          <mxGeometry relative="1" as="geometry">
            <mxPoint x="410" y="465" as="sourcePoint" />
            <mxPoint x="490" y="465" as="targetPoint" />
          </mxGeometry>
        </mxCell>
        <mxCell id="gMi1OoWCpDcQpGZq9_kJ-72" value="API" style="rounded=1;whiteSpace=wrap;html=1;verticalAlign=top;fillColor=#fad9d5;strokeColor=#ae4132;" vertex="1" parent="1">
          <mxGeometry x="600" y="345" width="150" height="315" as="geometry" />
        </mxCell>
        <mxCell id="gMi1OoWCpDcQpGZq9_kJ-32" value="chess-api" style="rounded=1;whiteSpace=wrap;html=1;" vertex="1" parent="1">
          <mxGeometry x="618.75" y="383.6666666666667" width="112.5" height="58" as="geometry" />
        </mxCell>
        <mxCell id="gMi1OoWCpDcQpGZq9_kJ-70" value="leaderboard api" style="rounded=1;whiteSpace=wrap;html=1;" vertex="1" parent="1">
          <mxGeometry x="618.75" y="519" width="112.5" height="58" as="geometry" />
        </mxCell>
        <mxCell id="gMi1OoWCpDcQpGZq9_kJ-71" value="auth api" style="rounded=1;whiteSpace=wrap;html=1;" vertex="1" parent="1">
          <mxGeometry x="618.75" y="451.3333333333333" width="112.5" height="58" as="geometry" />
        </mxCell>
        <mxCell id="gMi1OoWCpDcQpGZq9_kJ-84" value="comments api" style="rounded=1;whiteSpace=wrap;html=1;" vertex="1" parent="1">
          <mxGeometry x="618.75" y="584.5" width="112.5" height="58" as="geometry" />
        </mxCell>
      </root>
    </mxGraphModel>
  </diagram>
</mxfile>
